<svg width="300" height="300" viewBox="0 0 300 300" fill="none" xmlns="http://www.w3.org/2000/svg">
<path d="M93.75 206.25L32.8125 267.188" stroke="white" stroke-width="14" stroke-linecap="round" stroke-linejoin="round"/>
<path d="M267.188 32.8125L206.25 93.75" stroke="white" stroke-width="14" stroke-linecap="round" stroke-linejoin="round"/>
<path d="M153.58 80.8077L80.8249 153.562C69.8414 164.546 69.8414 182.354 80.8249 193.337L106.678 219.191C117.662 230.174 135.47 230.174 146.453 219.191L219.208 146.436C230.191 135.453 230.191 117.645 219.208 106.661L193.354 80.8077C182.371 69.8242 164.563 69.8242 153.58 80.8077Z" stroke="white" stroke-width="14" stroke-linecap="round" stroke-linejoin="round"/>
<path d="M107.812 107.812L192.188 192.188" stroke="white" stroke-width="14" stroke-linecap="round" stroke-linejoin="round"/>
<path d="M182.812 248.438L189.023 267.188" stroke="white" stroke-width="14" stroke-linecap="round" stroke-linejoin="round"/>
<path d="M110.986 32.8125L117.197 51.5625" stroke="white" stroke-width="14" stroke-linecap="round" stroke-linejoin="round"/>
<path d="M248.438 182.812L267.188 189.023" stroke="white" stroke-width="14" stroke-linecap="round" stroke-linejoin="round"/>
<path d="M32.8125 110.977L51.5625 117.188" stroke="white" stroke-width="14" stroke-linecap="round" stroke-linejoin="round"/>
</svg>
