<svg width="300" height="300" viewBox="0 0 300 300" fill="none" xmlns="http://www.w3.org/2000/svg">
<path d="M150 187.5C175.888 187.5 196.875 166.513 196.875 140.625C196.875 114.737 175.888 93.75 150 93.75C124.112 93.75 103.125 114.737 103.125 140.625C103.125 166.513 124.112 187.5 150 187.5Z" stroke="white" stroke-width="14" stroke-linecap="round" stroke-linejoin="round"/>
<path d="M74.7559 233.672C81.8095 219.778 92.5726 208.109 105.852 199.958C119.132 191.807 134.409 187.493 149.99 187.493C165.572 187.493 180.849 191.807 194.128 199.958C207.408 208.109 218.171 219.778 225.225 233.672" stroke="white" stroke-width="14" stroke-linecap="round" stroke-linejoin="round"/>
<path d="M234.375 65.625V42.1875" stroke="white" stroke-width="14" stroke-linecap="round" stroke-linejoin="round"/>
<path d="M234.375 65.625L212.109 58.3594" stroke="white" stroke-width="14" stroke-linecap="round" stroke-linejoin="round"/>
<path d="M234.385 65.625L220.557 84.6094" stroke="white" stroke-width="14" stroke-linecap="round" stroke-linejoin="round"/>
<path d="M234.375 65.625L248.203 84.6094" stroke="white" stroke-width="14" stroke-linecap="round" stroke-linejoin="round"/>
<path d="M234.375 65.625L256.641 58.3594" stroke="white" stroke-width="14" stroke-linecap="round" stroke-linejoin="round"/>
<path d="M261.68 136.524C262.248 140.993 262.522 145.495 262.5 150C262.5 172.25 255.902 194.001 243.54 212.502C231.179 231.002 213.609 245.422 193.052 253.937C172.495 262.451 149.875 264.679 128.052 260.338C106.23 255.998 86.1839 245.283 70.4505 229.55C54.7171 213.816 44.0025 193.771 39.6617 171.948C35.3209 150.125 37.5487 127.505 46.0636 106.948C54.5785 86.3915 68.9979 68.8214 87.4984 56.4597C105.999 44.0981 127.75 37.5001 150 37.5001C153.482 37.4781 156.963 37.6346 160.43 37.9688" stroke="white" stroke-width="14" stroke-linecap="round" stroke-linejoin="round"/>
</svg>
