<svg width="300" height="300" viewBox="0 0 300 300" fill="none" xmlns="http://www.w3.org/2000/svg">
<path d="M162.5 143.75C162.5 136.846 168.096 131.25 175 131.25H237.5C244.404 131.25 250 136.846 250 143.75V231.25C250 238.154 244.404 243.75 237.5 243.75H175C168.096 243.75 162.5 238.154 162.5 231.25V143.75Z" stroke="white" stroke-width="14" stroke-linecap="round"/>
<path d="M50 56.25C50 49.3464 55.5964 43.75 62.5 43.75H112.5C119.404 43.75 125 49.3464 125 56.25V143.75C125 150.654 119.404 156.25 112.5 156.25H62.5C55.5964 156.25 50 150.654 50 143.75V56.25Z" stroke="white" stroke-width="14" stroke-linecap="round"/>
<path d="M50 206.25C50 199.346 55.5964 193.75 62.5 193.75H112.5C119.404 193.75 125 199.346 125 206.25V231.25C125 238.154 119.404 243.75 112.5 243.75H62.5C55.5964 243.75 50 238.154 50 231.25V206.25Z" stroke="white" stroke-width="14" stroke-linecap="round"/>
<path d="M162.5 56.25C162.5 49.3464 168.096 43.75 175 43.75H237.5C244.404 43.75 250 49.3464 250 56.25V81.25C250 88.1536 244.404 93.75 237.5 93.75H175C168.096 93.75 162.5 88.1536 162.5 81.25V56.25Z" stroke="white" stroke-width="14" stroke-linecap="round"/>
</svg>
