<svg width="300" height="300" viewBox="0 0 300 300" fill="none" xmlns="http://www.w3.org/2000/svg">
<path d="M225 256.249H50C46.6848 256.249 43.5054 254.932 41.1612 252.588C38.817 250.244 37.5 247.064 37.5 243.749V131.249H0L129.087 13.899C131.389 11.805 134.389 10.6445 137.5 10.6445C140.611 10.6445 143.611 11.805 145.913 13.899L275 131.249H237.5V243.749C237.5 247.064 236.183 250.244 233.839 252.588C231.495 254.932 228.315 256.249 225 256.249ZM150 231.249H212.5V108.211L137.5 40.0365L62.5 108.211V231.249H125V156.249H150V231.249Z" fill="#1E4077"/>
</svg>
