<svg width="24" height="25" viewBox="0 0 24 25" fill="none" xmlns="http://www.w3.org/2000/svg">
<path d="M13 12.3572C13 11.8049 13.4477 11.3572 14 11.3572H19C19.5523 11.3572 20 11.8049 20 12.3572V19.3572C20 19.9095 19.5523 20.3572 19 20.3572H14C13.4477 20.3572 13 19.9095 13 19.3572V12.3572Z" stroke="white" stroke-width="1.5" stroke-linecap="round"/>
<path d="M4 5.35718C4 4.80489 4.44772 4.35718 5 4.35718H9C9.55228 4.35718 10 4.80489 10 5.35718V12.3572C10 12.9095 9.55228 13.3572 9 13.3572H5C4.44772 13.3572 4 12.9095 4 12.3572V5.35718Z" stroke="white" stroke-width="1.5" stroke-linecap="round"/>
<path d="M4 17.3572C4 16.8049 4.44772 16.3572 5 16.3572H9C9.55228 16.3572 10 16.8049 10 17.3572V19.3572C10 19.9095 9.55228 20.3572 9 20.3572H5C4.44772 20.3572 4 19.9095 4 19.3572V17.3572Z" stroke="white" stroke-width="1.5" stroke-linecap="round"/>
<path d="M13 5.35718C13 4.80489 13.4477 4.35718 14 4.35718H19C19.5523 4.35718 20 4.80489 20 5.35718V7.35718C20 7.90946 19.5523 8.35718 19 8.35718H14C13.4477 8.35718 13 7.90946 13 7.35718V5.35718Z" stroke="white" stroke-width="1.5" stroke-linecap="round"/>
</svg>
