<svg width="15" height="15" viewBox="0 0 15 15" fill="none" xmlns="http://www.w3.org/2000/svg">
<path d="M7.47135 0.832719H2.80469C1.70012 0.832719 0.804688 1.72815 0.804688 2.83272V12.1661C0.804688 13.2706 1.70012 14.1661 2.80469 14.1661H12.138C13.2426 14.1661 14.138 13.2706 14.138 12.1661V7.49939M12.8165 4.51122L13.7213 3.60642C14.3722 2.95555 14.3722 1.90028 13.7213 1.24941C13.0704 0.598533 12.0152 0.598537 11.3643 1.24942L10.4595 2.1542M12.8165 4.51122L7.78631 9.54152C7.55364 9.77419 7.25731 9.93278 6.93465 9.99732L4.48321 10.4876L4.9735 8.03615C5.03803 7.7135 5.19662 7.41717 5.42928 7.18451L10.4595 2.1542M12.8165 4.51122L10.4595 2.1542" stroke="white" stroke-width="1.5" stroke-linecap="round" stroke-linejoin="round"/>
</svg>
