<svg width="21" height="21" viewBox="0 0 21 21" fill="none" xmlns="http://www.w3.org/2000/svg">
<path d="M18.2111 11.0031L19.1396 11.3743L18.2111 11.0031ZM2.72908 11.0031L1.80052 11.3743L2.72908 11.0031ZM3.65763 10.191C4.73888 7.48614 7.38287 5.57812 10.4701 5.57812V3.57812C6.53732 3.57812 3.17502 6.01017 1.80052 9.4486L3.65763 10.191ZM10.4701 5.57812C13.5573 5.57812 16.2013 7.48614 17.2825 10.191L19.1396 9.4486C17.7651 6.01017 14.4028 3.57812 10.4701 3.57812V5.57812ZM17.2825 10.6319C16.2013 13.3368 13.5573 15.2448 10.4701 15.2448V17.2448C14.4028 17.2448 17.7651 14.8127 19.1396 11.3743L17.2825 10.6319ZM10.4701 15.2448C7.38287 15.2448 4.73888 13.3368 3.65763 10.6319L1.80052 11.3743C3.17502 14.8127 6.53732 17.2448 10.4701 17.2448V15.2448ZM17.2825 10.191C17.339 10.3324 17.339 10.4905 17.2825 10.6319L19.1396 11.3743C19.3867 10.7563 19.3867 10.0666 19.1396 9.4486L17.2825 10.191ZM1.80052 9.4486C1.55347 10.0666 1.55347 10.7563 1.80052 11.3743L3.65763 10.6319C3.6011 10.4905 3.6011 10.3324 3.65763 10.191L1.80052 9.4486Z" fill="white"/>
<circle cx="10.4707" cy="10.4116" r="2.5" stroke="white" stroke-width="2" stroke-linecap="round" stroke-linejoin="round"/>
</svg>
