<svg width="24" height="24" viewBox="0 0 24 24" fill="none" xmlns="http://www.w3.org/2000/svg">
<path d="M18 20.4999H4C3.73478 20.4999 3.48043 20.3946 3.29289 20.207C3.10536 20.0195 3 19.7651 3 19.4999V10.4999H0L10.327 1.11192C10.5111 0.944398 10.7511 0.851562 11 0.851562C11.2489 0.851563 11.4889 0.944398 11.673 1.11192L22 10.4999H19V19.4999C19 19.7651 18.8946 20.0195 18.7071 20.207C18.5196 20.3946 18.2652 20.4999 18 20.4999ZM12 18.4999H17V8.65692L11 3.20292L5 8.65692V18.4999H10V12.4999H12V18.4999Z" fill="#1E4077"/>
</svg>
