<svg width="24" height="25" viewBox="0 0 24 25" fill="none" xmlns="http://www.w3.org/2000/svg">
<path d="M7.5 16.9285L2.625 21.8035" stroke="white" stroke-width="1.5" stroke-linecap="round" stroke-linejoin="round"/>
<path d="M21.375 3.05347L16.5 7.92847" stroke="white" stroke-width="1.5" stroke-linecap="round" stroke-linejoin="round"/>
<path d="M12.2864 6.89308L6.46599 12.7135C5.58731 13.5921 5.58731 15.0168 6.46599 15.8954L8.53428 17.9637C9.41296 18.8424 10.8376 18.8424 11.7163 17.9637L17.5366 12.1433C18.4153 11.2647 18.4153 9.84005 17.5366 8.96137L15.4683 6.89308C14.5897 6.0144 13.165 6.0144 12.2864 6.89308Z" stroke="white" stroke-width="1.5" stroke-linecap="round" stroke-linejoin="round"/>
<path d="M8.625 9.05347L15.375 15.8035" stroke="white" stroke-width="1.5" stroke-linecap="round" stroke-linejoin="round"/>
<path d="M14.625 20.3035L15.1219 21.8035" stroke="white" stroke-width="1.5" stroke-linecap="round" stroke-linejoin="round"/>
<path d="M8.87793 3.05347L9.3748 4.55347" stroke="white" stroke-width="1.5" stroke-linecap="round" stroke-linejoin="round"/>
<path d="M19.875 15.0535L21.375 15.5503" stroke="white" stroke-width="1.5" stroke-linecap="round" stroke-linejoin="round"/>
<path d="M2.625 9.30664L4.125 9.80352" stroke="white" stroke-width="1.5" stroke-linecap="round" stroke-linejoin="round"/>
</svg>
