<svg width="21" height="21" viewBox="0 0 21 21" fill="none" xmlns="http://www.w3.org/2000/svg">
<path d="M12.1374 4.96927H11.3874C11.3874 5.30108 11.6054 5.59346 11.9234 5.68811L12.1374 4.96927ZM13.2459 5.42884L12.8885 6.08825C13.1804 6.2464 13.5415 6.19389 13.7762 5.95917L13.2459 5.42884ZM13.8884 4.78631L14.4187 5.31664L14.4187 5.31664L13.8884 4.78631ZM15.3026 4.78631L14.7723 5.31664L14.7723 5.31664L15.3026 4.78631ZM16.2454 5.72912L16.7757 5.19879L16.7757 5.19879L16.2454 5.72912ZM16.2454 7.14333L16.7757 7.67366L16.7757 7.67366L16.2454 7.14333ZM15.6029 7.78585L15.0726 7.25552C14.8378 7.49024 14.7853 7.85133 14.9435 8.14318L15.6029 7.78585ZM16.0625 8.89437L15.3436 9.10831C15.4383 9.42633 15.7307 9.64437 16.0625 9.64437V8.89437ZM16.0625 12.2277V11.4777C15.7307 11.4777 15.4383 11.6957 15.3436 12.0138L16.0625 12.2277ZM15.6029 13.3362L14.9435 12.9789C14.7853 13.2707 14.8378 13.6318 15.0726 13.8665L15.6029 13.3362ZM13.2459 15.6932L13.7762 15.1629C13.5415 14.9282 13.1804 14.8757 12.8885 15.0338L13.2459 15.6932ZM12.1374 16.1528L11.9234 15.434C11.6054 15.5286 11.3874 15.821 11.3874 16.1528H12.1374ZM8.80405 16.1528H9.55405C9.55405 15.821 9.33601 15.5286 9.01799 15.434L8.80405 16.1528ZM7.69553 15.6932L8.05286 15.0338C7.76101 14.8757 7.39992 14.9282 7.1652 15.1629L7.69553 15.6932ZM7.05302 16.3357L7.58335 16.8661L7.58335 16.8661L7.05302 16.3357ZM5.63881 16.3357L5.10848 16.8661L5.10848 16.8661L5.63881 16.3357ZM4.696 15.3929L5.22633 14.8626L5.22633 14.8626L4.696 15.3929ZM4.696 13.9787L4.16567 13.4484L4.16567 13.4484L4.696 13.9787ZM5.33852 13.3362L5.86885 13.8665C6.10357 13.6318 6.15608 13.2707 5.99793 12.9789L5.33852 13.3362ZM4.87895 12.2277L5.59779 12.0138C5.50314 11.6957 5.21076 11.4777 4.87895 11.4777V12.2277ZM4.87895 8.89437V9.64437C5.21076 9.64437 5.50314 9.42633 5.59779 9.10831L4.87895 8.89437ZM5.33852 7.78589L5.99793 8.14321C6.15608 7.85136 6.10357 7.49027 5.86885 7.25556L5.33852 7.78589ZM4.696 7.14337L4.16567 7.6737H4.16568L4.696 7.14337ZM4.696 5.72916L4.16567 5.19883H4.16567L4.696 5.72916ZM5.63881 4.78635L5.10848 4.25602L5.10848 4.25602L5.63881 4.78635ZM7.05303 4.78635L7.58336 4.25602V4.25602L7.05303 4.78635ZM7.69554 5.42886L7.16521 5.95919C7.39993 6.19391 7.76101 6.24641 8.05286 6.08827L7.69554 5.42886ZM8.80405 4.96927L9.01799 5.68811C9.33601 5.59346 9.55405 5.30108 9.55405 4.96927H8.80405ZM9.80405 2.31104C8.83755 2.31104 8.05405 3.09454 8.05405 4.06104H9.55405C9.55405 3.92296 9.66598 3.81104 9.80405 3.81104V2.31104ZM11.1374 2.31104H9.80405V3.81104H11.1374V2.31104ZM12.8874 4.06104C12.8874 3.09454 12.1039 2.31104 11.1374 2.31104V3.81104C11.2755 3.81104 11.3874 3.92296 11.3874 4.06104H12.8874ZM12.8874 4.96927V4.06104H11.3874V4.96927H12.8874ZM13.6032 4.76943C13.2086 4.55562 12.7896 4.38086 12.3513 4.25043L11.9234 5.68811C12.2611 5.78859 12.5841 5.92328 12.8885 6.08825L13.6032 4.76943ZM13.3581 4.25598L12.7155 4.89851L13.7762 5.95917L14.4187 5.31664L13.3581 4.25598ZM15.8329 4.25598C15.1495 3.57256 14.0415 3.57256 13.3581 4.25598L14.4187 5.31664C14.5164 5.21901 14.6746 5.21901 14.7723 5.31664L15.8329 4.25598ZM16.7757 5.19879L15.8329 4.25598L14.7723 5.31664L15.7151 6.25945L16.7757 5.19879ZM16.7757 7.67366C17.4592 6.99025 17.4592 5.88221 16.7757 5.19879L15.7151 6.25945C15.8127 6.35708 15.8127 6.51537 15.7151 6.613L16.7757 7.67366ZM16.1332 8.31618L16.7757 7.67366L15.7151 6.613L15.0726 7.25552L16.1332 8.31618ZM16.7813 8.68043C16.6509 8.24216 16.4761 7.82311 16.2623 7.42853L14.9435 8.14318C15.1085 8.44763 15.2432 8.77067 15.3436 9.10831L16.7813 8.68043ZM16.0625 9.64437H16.9707V8.14437H16.0625V9.64437ZM16.9707 9.64437C17.1088 9.64437 17.2207 9.7563 17.2207 9.89437H18.7207C18.7207 8.92787 17.9372 8.14437 16.9707 8.14437V9.64437ZM17.2207 9.89437V11.2277H18.7207V9.89437H17.2207ZM17.2207 11.2277C17.2207 11.3658 17.1088 11.4777 16.9707 11.4777V12.9777C17.9372 12.9777 18.7207 12.1942 18.7207 11.2277H17.2207ZM16.9707 11.4777H16.0625V12.9777H16.9707V11.4777ZM16.2623 13.6935C16.4761 13.299 16.6509 12.8799 16.7813 12.4416L15.3436 12.0138C15.2432 12.3514 15.1085 12.6744 14.9435 12.9789L16.2623 13.6935ZM16.7757 13.4484L16.1332 12.8059L15.0726 13.8665L15.7151 14.5091L16.7757 13.4484ZM16.7757 15.9233C17.4592 15.2399 17.4592 14.1318 16.7757 13.4484L15.7151 14.5091C15.8127 14.6067 15.8127 14.765 15.7151 14.8626L16.7757 15.9233ZM15.8329 16.8661L16.7757 15.9233L15.7151 14.8626L14.7723 15.8054L15.8329 16.8661ZM13.3581 16.8661C14.0415 17.5495 15.1495 17.5495 15.8329 16.8661L14.7723 15.8054C14.6746 15.9031 14.5164 15.9031 14.4187 15.8054L13.3581 16.8661ZM12.7155 16.2236L13.3581 16.8661L14.4187 15.8054L13.7762 15.1629L12.7155 16.2236ZM12.3513 16.8716C12.7896 16.7412 13.2086 16.5664 13.6032 16.3526L12.8885 15.0338C12.5841 15.1988 12.2611 15.3335 11.9234 15.434L12.3513 16.8716ZM12.8874 17.061V16.1528H11.3874V17.061H12.8874ZM11.1374 18.811C12.1039 18.811 12.8874 18.0275 12.8874 17.061H11.3874C11.3874 17.1991 11.2755 17.311 11.1374 17.311V18.811ZM9.80405 18.811H11.1374V17.311H9.80405V18.811ZM8.05405 17.061C8.05405 18.0275 8.83755 18.811 9.80405 18.811V17.311C9.66598 17.311 9.55405 17.1991 9.55405 17.061H8.05405ZM8.05405 16.1528V17.061H9.55405V16.1528H8.05405ZM7.33821 16.3526C7.73279 16.5664 8.15184 16.7412 8.59011 16.8716L9.01799 15.434C8.68035 15.3335 8.35731 15.1988 8.05286 15.0338L7.33821 16.3526ZM7.58335 16.8661L8.22586 16.2235L7.1652 15.1629L6.52269 15.8054L7.58335 16.8661ZM5.10848 16.8661C5.7919 17.5495 6.89994 17.5495 7.58335 16.8661L6.52269 15.8054C6.42506 15.903 6.26677 15.903 6.16914 15.8054L5.10848 16.8661ZM4.16567 15.9232L5.10848 16.8661L6.16914 15.8054L5.22633 14.8626L4.16567 15.9232ZM4.16567 13.4484C3.48226 14.1318 3.48225 15.2398 4.16567 15.9232L5.22633 14.8626C5.1287 14.765 5.1287 14.6067 5.22633 14.509L4.16567 13.4484ZM4.80819 12.8058L4.16567 13.4484L5.22633 14.509L5.86885 13.8665L4.80819 12.8058ZM4.16011 12.4416C4.29054 12.8799 4.4653 13.2989 4.67911 13.6935L5.99793 12.9789C5.83296 12.6744 5.69827 12.3514 5.59779 12.0138L4.16011 12.4416ZM4.87895 11.4777H3.9707V12.9777H4.87895V11.4777ZM3.9707 11.4777C3.83263 11.4777 3.7207 11.3658 3.7207 11.2277H2.2207C2.2207 12.1942 3.0042 12.9777 3.9707 12.9777V11.4777ZM3.7207 11.2277V9.89437H2.2207V11.2277H3.7207ZM3.7207 9.89437C3.7207 9.7563 3.83263 9.64437 3.9707 9.64437V8.14437C3.00421 8.14437 2.2207 8.92787 2.2207 9.89437H3.7207ZM3.9707 9.64437H4.87895V8.14437H3.9707V9.64437ZM4.67911 7.42857C4.46531 7.82313 4.29054 8.24217 4.16011 8.68043L5.59779 9.10831C5.69827 8.77068 5.83296 8.44765 5.99793 8.14321L4.67911 7.42857ZM4.16568 7.6737L4.80819 8.31622L5.86885 7.25556L5.22633 6.61304L4.16568 7.6737ZM4.16567 5.19883C3.48226 5.88224 3.48226 6.99028 4.16567 7.6737L5.22634 6.61304C5.1287 6.51541 5.1287 6.35712 5.22634 6.25949L4.16567 5.19883ZM5.10848 4.25602L4.16567 5.19883L5.22634 6.25949L6.16914 5.31668L5.10848 4.25602ZM7.58336 4.25602C6.89994 3.5726 5.7919 3.5726 5.10848 4.25602L6.16914 5.31668C6.26678 5.21905 6.42507 5.21905 6.5227 5.31668L7.58336 4.25602ZM8.22587 4.89853L7.58336 4.25602L6.5227 5.31668L7.16521 5.95919L8.22587 4.89853ZM8.59011 4.25043C8.15184 4.38086 7.73279 4.55564 7.33822 4.76945L8.05286 6.08827C8.35732 5.92329 8.68035 5.78859 9.01799 5.68811L8.59011 4.25043ZM8.05405 4.06104V4.96927H9.55405V4.06104H8.05405Z" fill="white"/>
<circle cx="10.4707" cy="10.561" r="2.5" stroke="white" stroke-width="1.5" stroke-linecap="round" stroke-linejoin="round"/>
</svg>
