<svg width="24" height="25" viewBox="0 0 24 25" fill="none" xmlns="http://www.w3.org/2000/svg">
<path d="M12 15.7142C14.0711 15.7142 15.75 14.0353 15.75 11.9642C15.75 9.89317 14.0711 8.21423 12 8.21423C9.92893 8.21423 8.25 9.89317 8.25 11.9642C8.25 14.0353 9.92893 15.7142 12 15.7142Z" stroke="white" stroke-width="1.5" stroke-linecap="round" stroke-linejoin="round"/>
<path d="M5.98145 19.4079C6.54574 18.2965 7.40678 17.363 8.46914 16.7109C9.5315 16.0588 10.7537 15.7136 12.0002 15.7136C13.2467 15.7136 14.4689 16.0588 15.5312 16.7109C16.5936 17.363 17.4547 18.2965 18.0189 19.4079" stroke="white" stroke-width="1.5" stroke-linecap="round" stroke-linejoin="round"/>
<path d="M18.75 5.96423V4.08923" stroke="white" stroke-width="1.5" stroke-linecap="round" stroke-linejoin="round"/>
<path d="M18.75 5.96418L16.9688 5.38293" stroke="white" stroke-width="1.5" stroke-linecap="round" stroke-linejoin="round"/>
<path d="M18.7498 5.96423L17.6436 7.48298" stroke="white" stroke-width="1.5" stroke-linecap="round" stroke-linejoin="round"/>
<path d="M18.75 5.96423L19.8563 7.48298" stroke="white" stroke-width="1.5" stroke-linecap="round" stroke-linejoin="round"/>
<path d="M18.75 5.96418L20.5312 5.38293" stroke="white" stroke-width="1.5" stroke-linecap="round" stroke-linejoin="round"/>
<path d="M20.9344 11.6361C20.9799 11.9937 21.0018 12.3538 21 12.7143C21 14.4943 20.4722 16.2344 19.4832 17.7144C18.4943 19.1944 17.0887 20.348 15.4442 21.0292C13.7996 21.7104 11.99 21.8886 10.2442 21.5413C8.49836 21.1941 6.89472 20.3369 5.63604 19.0782C4.37737 17.8196 3.5202 16.2159 3.17294 14.4701C2.82567 12.7243 3.0039 10.9147 3.68509 9.27012C4.36628 7.62559 5.51983 6.21998 6.99987 5.23105C8.47991 4.24211 10.22 3.71427 12 3.71427C12.2786 3.71252 12.5571 3.72503 12.8344 3.75177" stroke="white" stroke-width="1.5" stroke-linecap="round" stroke-linejoin="round"/>
</svg>
